# xmcd CD database file
#
# Track frame offsets:
#	150
#	17515
#	36800
#	55531
#	75042
#	93188
#	113100
#	133119
#	152557
#	168202
#
# Disc length: 2488 seconds
#
# Revision: 0
# Processed by: cddbd v1.5.2PL0 Copyright (c) Steve Scherf et al.
# Submitted via: cdripper 1,0,39,0213
#
DISCID=6009b60a
DTITLE=Walter Beasley - For Her
DYEAR=2005
DGENRE=Jazz
TTITLE0=She's All That
TTITLE1=For Her
TTITLE2=Coolness
TTITLE3=Good Morning
TTITLE4=What Ya' Feelin
TTITLE5=Don't Say Goodnight
TTITLE6=Remember When
TTITLE7=Grace
TTITLE8=Things Change
TTITLE9=Playtime
EXTD=YEAR: 2005
EXTT0=
EXTT1=
EXTT2=
EXTT3=
EXTT4=
EXTT5=
EXTT6=
EXTT7=
EXTT8=
EXTT9=
PLAYORDER=
